<svg xmlns="http://www.w3.org/2000/svg" version="1.1" viewBox="224.46 171.23 303.09 409.55">
 <g>
  <path d="m414.69 171.23h-77.383c-7.5352 0-14.762 2.9922-20.09 8.3203s-8.3242 12.559-8.3242 20.094v22.684h-60.762c-6.2773 0-12.301 2.4961-16.742 6.9375-4.4414 4.4375-6.9336 10.461-6.9336 16.742v29.363c0 6.2773 2.4922 12.301 6.9336 16.742s10.465 6.9336 16.742 6.9336h5.3516v229.64c0 13.816 5.4883 27.066 15.258 36.836 9.7695 9.7695 23.023 15.258 36.836 15.258h140.84c13.816 0 27.066-5.4883 36.836-15.258 9.7695-9.7695 15.258-23.02 15.258-36.836v-229.64h5.3516c6.2812 0 12.305-2.4922 16.746-6.9336 4.4375-4.4414 6.9336-10.465 6.9336-16.742v-29.363c0-6.2812-2.4961-12.305-6.9336-16.742-4.4414-4.4414-10.465-6.9375-16.746-6.9375h-60.758v-22.684c0-7.5352-2.9961-14.766-8.3242-20.094s-12.555-8.3203-20.094-8.3203zm-77.43 28.414h77.43v22.684h-77.383zm132.6 329.04c0 6.2812-2.4922 12.305-6.9336 16.742-4.4414 4.4414-10.465 6.9375-16.742 6.9375h-140.66c-6.2773 0-12.301-2.4961-16.742-6.9375-4.4414-4.4375-6.9336-10.461-6.9336-16.742v-229.64h188.25zm29.27-258.05h-246.26v-19.891h246.26z"/>
  <path d="m376 522.81c7.8477 0 14.207-6.3633 14.207-14.207v-160.55c0-7.8438-6.3594-14.207-14.207-14.207-7.8438 0-14.207 6.3633-14.207 14.207v160.55c0 7.8438 6.3633 14.207 14.207 14.207z"/>
  <path d="m428.09 522.81c7.8477 0 14.211-6.3633 14.211-14.207v-160.55c0-7.8438-6.3633-14.207-14.211-14.207-7.8438 0-14.207 6.3633-14.207 14.207v160.55c0 7.8438 6.3633 14.207 14.207 14.207z"/>
  <path d="m323.91 522.81c7.8477 0 14.207-6.3633 14.207-14.207v-160.55c0-7.8438-6.3594-14.207-14.207-14.207-7.8438 0-14.207 6.3633-14.207 14.207v160.55c0 7.8438 6.3633 14.207 14.207 14.207z"/>
 </g>
</svg>